<?xml version="1.0" standalone="no"?>
<!DOCTYPE svg PUBLIC "-//W3C//DTD SVG 20010904//EN"
 "http://www.w3.org/TR/2001/REC-SVG-20010904/DTD/svg10.dtd">
<svg version="1.0" xmlns="http://www.w3.org/2000/svg"
 width="958.000000pt" height="477.000000pt" viewBox="0 0 958.000000 477.000000"
 preserveAspectRatio="xMidYMid meet">

<g transform="translate(0.000000,477.000000) scale(0.100000,-0.100000)"
fill="#000000" stroke="none">
<path d="M5425 4762 c-33 -12 -51 -26 -64 -49 -8 -16 -11 -309 -11 -1115 -1
-1055 0 -1093 18 -1118 39 -52 173 -65 231 -22 53 39 52 14 49 1166 -3 1147
-1 1094 -52 1126 -23 15 -140 23 -171 12z"/>
<path d="M499 4016 c-277 -228 -415 -590 -379 -996 48 -563 385 -931 1082
-1181 106 -38 477 -143 483 -137 2 2 7 70 11 152 l9 148 515 -341 c283 -187
516 -344 517 -348 2 -5 -247 -133 -553 -286 l-557 -278 7 93 c3 51 9 132 12
180 l6 86 -43 6 c-314 37 -430 60 -639 123 -140 42 -265 97 -433 191 -124 68
-128 70 -137 49 -4 -12 -92 -222 -195 -467 -103 -245 -191 -455 -195 -467 -8
-19 4 -29 138 -110 332 -200 523 -275 897 -351 460 -95 1013 -95 1407 -3 339
80 593 212 802 416 244 240 351 482 363 826 9 240 -26 397 -137 624 -98 199
-203 313 -426 461 -268 177 -517 278 -979 394 l-150 38 -10 -174 -10 -173
-532 327 c-432 266 -529 329 -517 338 8 7 150 85 314 175 165 89 297 165 295
170 -6 8 -867 556 -887 564 -7 3 -43 -19 -79 -49z"/>
<path d="M6526 3860 c-39 -12 -76 -49 -76 -76 0 -12 16 -45 36 -74 58 -85 201
-387 229 -484 48 -171 29 -284 -62 -353 -91 -68 -271 -112 -500 -122 -199 -8
-198 -8 -198 -155 0 -97 2 -106 25 -131 l25 -27 175 5 c255 7 395 40 567 132
47 25 94 45 105 45 11 0 48 -21 82 -46 146 -110 262 -148 451 -148 143 0 260
23 425 83 46 17 93 31 104 31 10 0 41 -14 67 -30 146 -94 309 -100 491 -18 98
44 146 43 256 -6 397 -178 751 23 817 462 18 120 21 518 4 556 -16 35 -62 51
-145 51 -79 0 -116 -14 -133 -52 -7 -15 -11 -95 -11 -211 0 -332 -26 -443
-116 -506 -49 -33 -143 -45 -210 -27 -137 37 -183 144 -184 421 0 143 -8 163
-68 180 -47 13 -117 13 -164 -1 -58 -15 -65 -39 -71 -234 -6 -196 -20 -256
-74 -316 -81 -90 -231 -72 -282 34 -25 51 -41 185 -41 342 0 86 -4 116 -16
134 -48 68 -227 68 -266 -1 -9 -15 -15 -80 -19 -198 -4 -154 -8 -181 -28 -227
-46 -103 -128 -149 -287 -160 -109 -8 -175 12 -241 71 -72 65 -107 139 -158
334 -48 186 -119 386 -195 547 -55 118 -82 143 -185 170 -65 17 -86 17 -129 5z"/>
<path d="M4285 3843 c-11 -2 -26 -6 -33 -8 -8 -3 46 -78 139 -192 232 -289
315 -422 337 -544 31 -164 -70 -272 -293 -314 -39 -8 -140 -19 -225 -25 -209
-15 -216 -17 -240 -47 -17 -22 -20 -40 -20 -125 0 -93 2 -100 26 -125 l26 -26
191 6 c206 5 304 23 446 81 244 99 401 293 401 497 0 70 -36 194 -78 273 -69
127 -291 453 -329 485 -62 51 -130 71 -236 70 -51 -1 -101 -3 -112 -6z"/>
<path d="M4070 1893 c0 -10 14 -26 30 -35 21 -12 30 -25 30 -43 0 -28 -386
-964 -427 -1033 -14 -24 -40 -53 -59 -64 -20 -12 -34 -28 -34 -39 0 -18 10
-19 215 -19 202 0 215 1 215 18 0 11 -11 24 -25 30 -14 7 -28 19 -31 27 -3 8
9 58 27 110 l34 95 336 0 336 0 31 -84 c40 -104 40 -122 2 -144 -16 -9 -30
-25 -30 -34 0 -17 17 -18 215 -18 205 0 215 1 215 19 0 11 -14 27 -34 39 -19
11 -45 40 -59 64 -39 67 -427 1007 -427 1035 0 16 10 29 30 41 16 9 30 25 30
35 0 16 -21 17 -310 17 -289 0 -310 -1 -310 -17z m456 -463 c57 -146 106 -273
110 -282 5 -17 -12 -18 -256 -18 -206 0 -261 3 -257 13 4 9 80 205 208 535 8
20 15 23 50 20 l41 -3 104 -265z"/>
<path d="M5210 1892 c0 -11 11 -24 24 -30 17 -7 27 -22 31 -44 3 -18 5 -269 3
-556 l-3 -524 -27 -22 c-16 -12 -28 -29 -28 -39 0 -16 28 -17 384 -17 301 0
402 3 472 15 294 52 464 200 520 453 22 99 15 292 -14 372 -57 161 -144 261
-286 330 -150 73 -208 80 -673 80 -385 0 -403 -1 -403 -18z m801 -196 c92 -20
158 -56 212 -116 72 -80 91 -140 91 -290 0 -154 -20 -216 -97 -297 -97 -103
-170 -123 -459 -123 l-218 0 0 420 0 420 203 0 c135 0 224 -5 268 -14z"/>
<path d="M7050 1893 c0 -10 14 -26 30 -35 18 -10 30 -25 30 -38 0 -29 -406
-1004 -438 -1052 -14 -22 -38 -46 -54 -54 -16 -8 -28 -23 -28 -34 0 -19 8 -20
210 -20 186 0 210 2 210 16 0 9 -11 25 -25 36 -32 25 -31 34 6 140 l32 88 335
-2 336 -3 32 -80 c42 -102 42 -121 4 -143 -16 -9 -30 -25 -30 -34 0 -17 17
-18 215 -18 198 0 215 1 215 18 0 9 -13 24 -29 33 -15 9 -40 32 -54 50 -37 49
-449 1046 -442 1069 3 10 19 25 35 32 17 7 30 21 30 30 0 17 -21 18 -310 18
-289 0 -310 -1 -310 -17z m403 -335 c31 -79 81 -206 111 -283 l54 -140 -256
-3 c-140 -1 -257 -1 -259 2 -2 2 45 130 104 285 l108 281 41 0 41 0 56 -142z"/>
<path d="M8180 1890 c0 -11 6 -20 14 -20 8 0 22 -7 30 -16 14 -14 16 -79 16
-570 l0 -555 -30 -17 c-16 -9 -30 -25 -30 -35 0 -18 20 -18 428 -15 402 4 432
5 507 26 294 80 446 264 462 557 19 356 -179 598 -537 655 -36 5 -240 10 -462
10 -391 0 -398 0 -398 -20z m813 -195 c172 -36 274 -149 300 -331 27 -192 -48
-370 -185 -440 -90 -46 -146 -54 -375 -54 l-213 0 0 420 0 420 203 0 c137 0
224 -5 270 -15z"/>
</g>
</svg>
